<svg xmlns="http://www.w3.org/2000/svg" width="25.536" height="30.122" viewBox="0 0 25.536 30.122"><g transform="translate(84.75 -209.041)"><path d="M-711.13-68.587h-8.824a4.021,4.021,0,0,1-4.01-4.01V-86.233a4.022,4.022,0,0,1,4.01-4.01h8.021a.707.707,0,0,0,.184.494,5.991,5.991,0,0,0,1.587,2.791,5.991,5.991,0,0,0,2.8,1.576,1.024,1.024,0,0,0,.262.084l-.018,12.7A4.021,4.021,0,0,1-711.13-68.587Z" transform="translate(639.964 307)" fill="none" stroke="#000" stroke-linecap="round" stroke-width="1.5"/><circle cx="6" cy="6" r="6" transform="translate(-71.964 209.791)" fill="none" stroke="#000" stroke-linecap="round" stroke-width="1.5"/><path d="M208.173,40.711l1.01,1.01,2.393-2.393" transform="translate(-275.441 175.458)" fill="none" stroke="#000" stroke-linecap="round" stroke-linejoin="round" stroke-width="1.5"/><path d="M90,143.5h8.949" transform="translate(-170.085 80.092)" fill="none" stroke="#000" stroke-linecap="round" stroke-width="1.5"/><path d="M90,143.5h8.949" transform="translate(-170.085 84.007)" fill="none" stroke="#000" stroke-linecap="round" stroke-width="1.5"/><path d="M90,143.5h8.949" transform="translate(-170.085 87.922)" fill="none" stroke="#000" stroke-linecap="round" stroke-width="1.5"/></g></svg>