<svg xmlns="http://www.w3.org/2000/svg" width="25.5" height="21.438" viewBox="0 0 25.5 21.438"><g transform="translate(-105.25 -355.25)"><path d="M322.007,45.992h-3.125a4,4,0,0,0-.875-3.637V38h4v7.991Z" transform="translate(-203.007 318)" fill="none" stroke="#000" stroke-width="1.5"/><rect width="9" height="5" transform="translate(119 359)" fill="none" stroke="#000" stroke-width="1.5"/><path d="M318.883,42.992h-7.752a4,4,0,1,1,7.752,0Z" transform="translate(-203.007 321)" fill="none" stroke="#000" stroke-width="1.5"/><path d="M1,.008H23c.552,0,1,0,1,0s-.448,0-1,0H1C.448,0,0,0,0,0S.448.008,1,.008Z" transform="translate(106 363.992)" fill="none" stroke="#000" stroke-width="1.5"/><path d="M-2,2H19.9l-1,9.812a2.332,2.332,0,0,1-2.489,2.133H1.484A2.332,2.332,0,0,1-1,11.812Z" transform="translate(108.993 361.992)" fill="none" stroke="#000" stroke-linecap="round" stroke-width="1.5"/><path d="M0,.5,5.973,0" transform="translate(112.966 373.199) rotate(-90)" fill="none" stroke="#000" stroke-linecap="round" stroke-width="1.5"/><path d="M0,0H5.973" transform="translate(117.943 373.199) rotate(-90)" fill="none" stroke="#000" stroke-linecap="round" stroke-width="1.5"/><path d="M0,0,5.973.5" transform="translate(122.423 373.199) rotate(-90)" fill="none" stroke="#000" stroke-linecap="round" stroke-width="1.5"/></g></svg>