<svg xmlns="http://www.w3.org/2000/svg" width="38.5" height="23.762" viewBox="0 0 38.5 23.762"><g transform="translate(-179.25 -428.75)"><path d="M24.458,18.814H10.347a3.449,3.449,0,0,0-6.889-.242A4.986,4.986,0,0,1,0,13.814V5A5.006,5.006,0,0,1,5,0H19.458a5.006,5.006,0,0,1,5,5V18.813Z" transform="translate(180 429.5)" fill="none" stroke="#000" stroke-linecap="round" stroke-width="1.5"/><path d="M2.2,13.686H0V0H7.273l5.27,7.407v1.28a4.99,4.99,0,0,1-3.457,4.756,3.449,3.449,0,0,0-6.89.243Z" transform="translate(204.457 434.627)" fill="none" stroke="#000" stroke-linecap="round" stroke-width="1.5"/><path d="M90,143.5h15.051" transform="translate(94.703 291.645)" fill="none" stroke="#000" stroke-linecap="round" stroke-width="1.5"/><path d="M90,143.5h15.051" transform="translate(94.703 295.408)" fill="none" stroke="#000" stroke-linecap="round" stroke-width="1.5"/><path d="M90,143.5h15.051" transform="translate(94.703 299.17)" fill="none" stroke="#000" stroke-linecap="round" stroke-width="1.5"/><path d="M1.568,3.136A1.568,1.568,0,1,1,1.568,0H5.3L7.526,3.136Z" transform="translate(207.906 436.712)" fill="none" stroke="#000" stroke-linecap="round" stroke-linejoin="bevel" stroke-width="1.5"/><circle cx="3.449" cy="3.449" r="3.449" transform="translate(206.652 444.864)" fill="none" stroke="#000" stroke-width="1.5"/><circle cx="0.314" cy="0.314" r="0.314" transform="translate(209.788 448)" fill="none" stroke="#000" stroke-width="1.5"/><circle cx="3.449" cy="3.449" r="3.449" transform="translate(183.449 444.864)" fill="none" stroke="#000" stroke-width="1.5"/><circle cx="0.314" cy="0.314" r="0.314" transform="translate(186.585 448)" fill="none" stroke="#000" stroke-width="1.5"/></g></svg>