<svg xmlns="http://www.w3.org/2000/svg" width="27.157" height="31.707" viewBox="0 0 27.157 31.707"><g transform="translate(-177.105 -32.331)"><path d="M8.861,18.776h-4.2L.834,16.566A2.169,2.169,0,0,0,0,16.289L.987,0h9.734a5.964,5.964,0,0,0,4.8,5.017L16.323,18.3h-.751A4,4,0,0,0,11.6,14.657H5.757a1.231,1.231,0,0,0,0,2.463H8.134a.987.987,0,0,1,.726,1.657Z" transform="translate(180.427 39.841)" fill="none" stroke="#000" stroke-width="1.5"/><g transform="translate(198.782 63.288) rotate(180)"><path d="M12.6,8.79H6.763A4,4,0,0,1,2.782,5.143H0V.006H13.553c.054,0,.108-.006.167-.006A2.169,2.169,0,0,1,14.8.291l4.9,2.827a2.175,2.175,0,1,1-2.18,3.763l-4.38-2.53H10.22a.988.988,0,0,0,0,1.976H12.6a1.231,1.231,0,1,1,0,2.463Z" fill="none" stroke="#000" stroke-width="1.5"/></g><circle cx="6" cy="6" r="6" transform="translate(191.512 33.081)" fill="none" stroke="#000" stroke-linecap="round" stroke-width="1.5"/><path d="M208.173,40.734l1.027,1.027,2.434-2.434" transform="translate(-12.582 -1.48)" fill="none" stroke="#000" stroke-linecap="round" stroke-linejoin="round" stroke-width="1.5"/></g></svg>